<mxfile host="app.diagrams.net" modified="2023-09-13T09:14:46.441Z" agent="Mozilla/5.0 (X11; Ubuntu; Linux x86_64; rv:109.0) Gecko/20100101 Firefox/117.0" version="21.7.4" etag="onm7BQvyELwZ9L0mvFgf" type="github">
  <diagram name="Страница — 1" id="LRi8mz9Ac1vkAMCG92qE">
    <mxGraphModel>
      <root>
        <mxCell id="0" />
        <mxCell id="1" parent="0" />
      </root>
    </mxGraphModel>
  </diagram>
</mxfile>
